<?xml version="1.0" encoding="UTF-8"?>
<svg width="92px" height="86px" viewBox="0 0 92 86" version="1.1" xmlns="http://www.w3.org/2000/svg" xmlns:xlink="http://www.w3.org/1999/xlink">
    <!-- Generator: sketchtool 55.1 (78136) - https://sketchapp.com -->
    <title>8F021836-57A1-46E5-9DBF-0E9B9F85803E</title>
    <desc>Created with sketchtool.</desc>
    <g id="High-Fidelity" stroke="none" stroke-width="1" fill="none" fill-rule="evenodd">
        <g id="1-Guest-Landing" transform="translate(-1308.000000, -17.000000)">
            <g id="Nav-bar-1">
                <g id="Polaris-icon/Major/2-Tone/Profile">
                    <g transform="translate(1308.000000, 17.500000)">
                        <path d="M45.9972395,63.75 C34.3178984,63.75 24.4279387,68.391 18.3972395,72.07575 C25.9126417,77.49025 35.5172676,80.75 45.9972395,80.75 C56.4772115,80.75 66.0818374,77.49025 73.5972395,72.07575 C67.5665404,68.391 57.6765807,63.75 45.9972395,63.75" id="Fill" fill="#FFFFFF"></path>
                        <path d="M46,0.000849999979 C20.6356,0.000849999979 0,19.06635 0,42.50085 C0,65.9311 20.6356,85.00085 46,85.00085 C71.3644,85.00085 92,65.9311 92,42.50085 C92,19.06635 71.3644,0.000849999979 46,0.000849999979 M71.7738,66.7258492 C65.3154,63.0750992 56.3822,59.5008493 46,59.5008493 C35.6224,59.5008493 26.6846,63.0793492 20.2216,66.7258492 C13.4274,60.5548493 9.2,51.9783494 9.2,42.5008495 C9.2,23.7540998 25.7094,8.50085 46,8.50085 C66.2906,8.50085 82.8,23.7540998 82.8,42.5008495 C82.8,51.9783494 78.5726,60.5548493 71.7738,66.7258492 M28.2854008,72.2891 C33.2028009,69.9431 39.270201,68.00085 46.0000011,68.00085 C52.7344012,68.00085 58.7972013,69.9431 63.7146014,72.28485 C58.4522013,74.96235 52.4170012,76.50085 46.0000011,76.50085 C39.578401,76.50085 33.5432009,74.96235 28.2854008,72.2891 M46,42.5000009 C40.9262,42.5000009 36.8,38.6877509 36.8,34.0000009 C36.8,29.3122509 40.9262,25.5000009 46,25.5000009 C51.0738,25.5000009 55.2,29.3122509 55.2,34.0000009 C55.2,38.6877509 51.0738,42.5000009 46,42.5000009 M46,16.9999999 C35.8524,16.9999999 27.6,24.6244999 27.6,33.9999999 C27.6,43.3754999 35.8524,50.9999999 46,50.9999999 C56.1476,50.9999999 64.4,43.3754999 64.4,33.9999999 C64.4,24.6244999 56.1476,16.9999999 46,16.9999999" id="Mask" fill="#919EAB"></path>
                    </g>
                </g>
            </g>
        </g>
    </g>
</svg>